PathFileType	4	(X/Y/Z)	T1_P2_Vision_Movement_3_0-736.trc
DataRate	CameraRate	NumFrames	NumMarkers	Units	OrigDataRate	OrigDataStartFrame	OrigNumFrames
60	60	4	27	m	60	92	736
Frame#	Time	RHip			RKnee			RAnkle			RBigToe			RSmallToe			RHeel			LHip			LKnee			LAnkle			LBigToe			LSmallToe			LHeel			Neck			Head			Nose			RShoulder			RElbow			RWrist			RThumb			RIndex			RPinky			LShoulder			LElbow			LWrist			LThumb			LIndex			LPinky		
		X1	Y1	Z1	X2	Y2	Z2	X3	Y3	Z3	X4	Y4	Z4	X5	Y5	Z5	X6	Y6	Z6	X7	Y7	Z7	X8	Y8	Z8	X9	Y9	Z9	X10	Y10	Z10	X11	Y11	Z11	X12	Y12	Z12	X13	Y13	Z13	X14	Y14	Z14	X15	Y15	Z15	X16	Y16	Z16	X17	Y17	Z17	X18	Y18	Z18	X19	Y19	Z19	X20	Y20	Z20	X21	Y21	Z21	X22	Y22	Z22	X23	Y23	Z23	X24	Y24	Z24	X25	Y25	Z25	X26	Y26	Z26	X27	Y27	Z27
93	1.55	449.3015883402053	3681.1494972116566	634.3378633044287	838.0550329365325	3673.0517973520255	640.675831473678	1229.9849753066107	3764.189577306485	720.3940549806223	1294.3456095879558	3634.10241638788	661.3745541206483	1280.7995027356535	3660.343792212167	608.7029136829934	1288.9870971972537	3811.670594457979	760.958398442183	468.069950444583	3616.496154243992	843.5975333446477	864.7585874256764	3635.792543763951	850.0004186752174	1236.0141689444497	3703.1730087198	856.2561580535943	1334.0821897429435	3620.9210433191565	815.6615358521017	1290.5825771685522	3553.1154811052984	828.5907311133465	1265.877935282535	3730.5825149248226	864.8089375661534	-129.701281107428	3637.8574670603953	780.815650479618	-387.5783235535071	3578.415350153451	764.3688503126438	-237.68260186505142	3469.599131579304	726.5922402042895	-50.756548666236824	3733.4252588171476	635.27271905464	199.17004354222053	3855.6463213729494	569.159200253895	137.3199492900542	3633.247535562658	505.6407863406379	64.18192666985273	3480.533962317203	498.51023896046274	87.97588255128382	3496.181561929991	495.62972705861546	143.38192643825022	3481.429498960035	500.0437996886932	-33.50504461807984	3579.6721205352374	920.5930536630301	227.378792408781	3545.7797168131806	962.0598306595375	480.97237850456264	3524.767656853661	949.7083969519351	591.9307143592587	3530.1192929685208	922.9650503311301	618.9307506069317	3521.27531146999	930.424392810487	605.8462043038428	3452.525146891604	959.0493674263197
94	1.5666666666666667	454.5045329880946	3682.629569573909	635.3061418880849	841.3257220412258	3667.7447919237165	638.0175827505121	1224.6215966081215	3759.9810951505324	723.8442203406125	1280.9206610529852	3614.7715291484774	645.9314667632973	1280.8536980386293	3659.7682495098866	608.3296409639615	1289.0349637954655	3811.6794238071284	761.0486772639566	464.22397585168113	3621.009815218201	846.1668716197652	864.5785000034791	3635.457682157843	849.8176604538918	1240.906025275408	3705.049715773707	857.9556651261668	1329.1486746727576	3619.023428241237	813.8027616717128	1290.3602379515517	3555.2269991134262	823.561041375482	1265.942007480399	3730.355563613693	864.6046444565383	-125.26183380700861	3633.580450488401	778.6421517948984	-387.78616921903324	3578.399363721953	764.8315957405505	-232.91216237818972	3451.5295855801983	711.2271665964175	-54.837878839929886	3731.9136931848593	634.6479920668207	198.94741439476238	3855.507339018225	569.2275502186195	137.63302892791722	3632.023068852717	510.70979768709924	72.22255452335851	3479.2018498277735	497.63638040290795	92.39471469281517	3491.94980594407	493.3877665764945	157.5439244270153	3488.432278449592	513.2811756144521	-34.261249675579535	3563.4460487817155	905.3791466482485	223.34314938474782	3549.8707715476817	964.542096940994	480.9028954099773	3522.2399491098968	953.8825082927738	592.0136485382488	3529.752823899944	922.7442710520388	619.205738777428	3521.3116312233433	930.4244530083406	609.9241866768361	3473.2831946570777	967.0466767755704
95	1.5833333333333333	454.05955832875674	3701.0659218880546	655.5435693193198	838.1309681616768	3672.7670794057112	640.7068062201798	1224.578395391332	3760.085760596333	723.8578657867406	1296.2540291239472	3652.6932007496425	665.2514113540794	1280.8010123532306	3660.180638667754	608.5360335166002	1288.9233757596946	3811.6758733862944	761.0469382733821	468.8056668251262	3622.2804987528666	847.0571206239738	864.5291611414822	3635.324575662101	849.7280982160835	1235.7995507568062	3703.063813497989	856.0917257253734	1329.8612742558685	3626.038753398644	807.949088318866	1278.4381601083894	3549.262661344917	820.3878825170887	1265.5878502286778	3730.602639617456	864.6692629038386	-125.37501599433888	3633.8695943551033	778.6366877046182	-386.2866327345814	3557.135492092888	758.706332632866	-233.0483122251723	3466.2413620192424	724.5752984441453	-54.93499461227375	3732.062436876959	634.7097767868084	197.79221161815755	3833.373509996447	569.8928917166173	143.109367204967	3634.800236566818	512.2294653319656	82.9113853463636	3494.6806162882676	500.09023380527293	94.07063781489052	3510.5345871438913	497.12786693901074	163.4822931581101	3491.5499377825886	513.8184797917735	-34.302960507570596	3563.640814014304	905.4952848999587	223.41797525254103	3549.9080425424254	964.4893233167957	481.00012818956174	3524.54503193612	949.5672118848812	591.9271248063025	3529.7768410746703	922.7839979009408	619.019986861223	3519.4327206887538	935.1353938864969	609.6921847017675	3473.2799866085143	966.5206328401039
96	1.6	453.98100190744333	3701.117417138902	655.6071600932963	837.8739956743293	3670.1286115731837	645.1133927785777	1224.476429437735	3760.114182207449	723.9572249227791	1296.34309139999	3655.143060277246	660.6017217965766	1280.7888574876793	3660.324921445432	608.5913007232285	1282.2746986676843	3807.0400701611366	760.0382826548769	464.2354617824115	3620.9227126668293	846.0461299187938	859.3188923036683	3633.8392525230806	848.3747413975761	1226.0127513681537	3698.597485988044	852.225321835992	1329.8712787801794	3626.117901944521	808.0117824603512	1278.2102242475614	3548.9070755468065	820.3057594500488	1258.1703301459072	3715.055225984942	851.0935022136215	-125.5502583442894	3596.9009924803045	758.381343851934	-386.4075175629911	3556.8247667517244	758.8768551221079	-233.09314127841	3466.4136299492034	724.734859003406	-55.10516683332997	3732.110648024905	634.6529906719035	197.7803603048263	3833.301040064296	570.1888209477521	148.5449255414764	3636.9051024903565	518.331644199645	87.5327357274861	3490.3633782453057	497.8887880723284	99.84991796644375	3532.77738736245	502.32913502017243	163.9891390834727	3533.8218392146287	514.0596510126678	-34.26644176995955	3563.5239239670755	905.4296075421613	228.68405532380194	3553.803281444364	966.2896535788743	480.8424625909122	3522.1960108207654	953.8989841754722	592.0398096442527	3529.6545279705965	922.6115773816215	618.9925597047229	3519.3418686874684	934.9917114055438	605.6896107283857	3452.2449592930147	958.6526512842546
